# This file uses centimeters as units for non-parametric coordinates.

mtllib negative.mtl
g default
v 0.023319 -0.096593 -0.261230
v 0.016137 -0.096593 -0.270235
v 0.005759 -0.096593 -0.275233
v -0.005759 -0.096593 -0.275233
v -0.016137 -0.096593 -0.270235
v -0.023319 -0.096593 -0.261230
v -0.025882 -0.096593 -0.250000
v -0.023319 -0.096593 -0.238770
v -0.016137 -0.096593 -0.229765
v -0.005759 -0.096593 -0.224767
v 0.005759 -0.096593 -0.224767
v 0.016137 -0.096593 -0.229765
v 0.023319 -0.096593 -0.238770
v 0.025882 -0.096593 -0.250000
v 0.045048 -0.086603 -0.271694
v 0.031174 -0.086603 -0.289092
v 0.011126 -0.086603 -0.298746
v -0.011126 -0.086603 -0.298746
v -0.031174 -0.086603 -0.289092
v -0.045048 -0.086603 -0.271694
v -0.050000 -0.086603 -0.250000
v -0.045048 -0.086603 -0.228306
v -0.031174 -0.086603 -0.210908
v -0.011126 -0.086603 -0.201254
v 0.011126 -0.086603 -0.201254
v 0.031174 -0.086603 -0.210908
v 0.045048 -0.086603 -0.228306
v 0.050000 -0.086603 -0.250000
v 0.063708 -0.070711 -0.280680
v 0.044087 -0.070711 -0.305284
v 0.015735 -0.070711 -0.318938
v -0.015735 -0.070711 -0.318938
v -0.044087 -0.070711 -0.305284
v -0.063708 -0.070711 -0.280680
v -0.070711 -0.070711 -0.250000
v -0.063708 -0.070711 -0.219320
v -0.044087 -0.070711 -0.194716
v -0.015735 -0.070711 -0.181062
v 0.015735 -0.070711 -0.181062
v 0.044087 -0.070711 -0.194716
v 0.063708 -0.070711 -0.219320
v 0.070711 -0.070711 -0.250000
v 0.078026 -0.050000 -0.287575
v 0.053996 -0.050000 -0.317709
v 0.019271 -0.050000 -0.334431
v -0.019271 -0.050000 -0.334431
v -0.053996 -0.050000 -0.317709
v -0.078026 -0.050000 -0.287575
v -0.086603 -0.050000 -0.250000
v -0.078026 -0.050000 -0.212425
v -0.053996 -0.050000 -0.182291
v -0.019271 -0.050000 -0.165569
v 0.019271 -0.050000 -0.165569
v 0.053996 -0.050000 -0.182291
v 0.078026 -0.050000 -0.212425
v 0.086603 -0.050000 -0.250000
v 0.087027 -0.025882 -0.291910
v 0.060224 -0.025882 -0.325519
v 0.021494 -0.025882 -0.344171
v -0.021494 -0.025882 -0.344171
v -0.060224 -0.025882 -0.325519
v -0.087027 -0.025882 -0.291910
v -0.096593 -0.025882 -0.250000
v -0.087027 -0.025882 -0.208090
v -0.060224 -0.025882 -0.174481
v -0.021494 -0.025882 -0.155829
v 0.021494 -0.025882 -0.155829
v 0.060224 -0.025882 -0.174481
v 0.087027 -0.025882 -0.208090
v 0.096593 -0.025882 -0.250000
v 0.090097 0.000000 -0.293388
v 0.062349 0.000000 -0.328183
v 0.022252 0.000000 -0.347493
v -0.022252 0.000000 -0.347493
v -0.062349 0.000000 -0.328183
v -0.090097 0.000000 -0.293388
v -0.100000 0.000000 -0.250000
v -0.090097 0.000000 -0.206612
v -0.062349 0.000000 -0.171817
v -0.022252 0.000000 -0.152507
v 0.022252 0.000000 -0.152507
v 0.062349 0.000000 -0.171817
v 0.090097 0.000000 -0.206612
v 0.100000 0.000000 -0.250000
v 0.087027 0.025882 -0.291910
v 0.060224 0.025882 -0.325519
v 0.021494 0.025882 -0.344171
v -0.021494 0.025882 -0.344171
v -0.060224 0.025882 -0.325519
v -0.087027 0.025882 -0.291910
v -0.096593 0.025882 -0.250000
v -0.087027 0.025882 -0.208090
v -0.060224 0.025882 -0.174481
v -0.021494 0.025882 -0.155829
v 0.021494 0.025882 -0.155829
v 0.060224 0.025882 -0.174481
v 0.087027 0.025882 -0.208090
v 0.096593 0.025882 -0.250000
v 0.078026 0.050000 -0.287575
v 0.053996 0.050000 -0.317709
v 0.019271 0.050000 -0.334431
v -0.019271 0.050000 -0.334431
v -0.053996 0.050000 -0.317709
v -0.078026 0.050000 -0.287575
v -0.086603 0.050000 -0.250000
v -0.078026 0.050000 -0.212425
v -0.053996 0.050000 -0.182291
v -0.019271 0.050000 -0.165569
v 0.019271 0.050000 -0.165569
v 0.053996 0.050000 -0.182291
v 0.078026 0.050000 -0.212425
v 0.086603 0.050000 -0.250000
v 0.063708 0.070711 -0.280680
v 0.044087 0.070711 -0.305284
v 0.015735 0.070711 -0.318938
v -0.015735 0.070711 -0.318938
v -0.044087 0.070711 -0.305284
v -0.063708 0.070711 -0.280680
v -0.070711 0.070711 -0.250000
v -0.063708 0.070711 -0.219320
v -0.044087 0.070711 -0.194716
v -0.015735 0.070711 -0.181062
v 0.015735 0.070711 -0.181062
v 0.044087 0.070711 -0.194716
v 0.063708 0.070711 -0.219320
v 0.070711 0.070711 -0.250000
v 0.045048 0.086603 -0.271694
v 0.031174 0.086603 -0.289092
v 0.011126 0.086603 -0.298746
v -0.011126 0.086603 -0.298746
v -0.031174 0.086603 -0.289092
v -0.045048 0.086603 -0.271694
v -0.050000 0.086603 -0.250000
v -0.045048 0.086603 -0.228306
v -0.031174 0.086603 -0.210908
v -0.011126 0.086603 -0.201254
v 0.011126 0.086603 -0.201254
v 0.031174 0.086603 -0.210908
v 0.045048 0.086603 -0.228306
v 0.050000 0.086603 -0.250000
v 0.023319 0.096593 -0.261230
v 0.016137 0.096593 -0.270235
v 0.005759 0.096593 -0.275233
v -0.005759 0.096593 -0.275233
v -0.016137 0.096593 -0.270235
v -0.023319 0.096593 -0.261230
v -0.025882 0.096593 -0.250000
v -0.023319 0.096593 -0.238770
v -0.016137 0.096593 -0.229765
v -0.005759 0.096593 -0.224767
v 0.005759 0.096593 -0.224767
v 0.016137 0.096593 -0.229765
v 0.023319 0.096593 -0.238770
v 0.025882 0.096593 -0.250000
v 0.000000 -0.100000 -0.250000
v 0.000000 0.100000 -0.250000
vt 0.000000 0.083333
vt 0.071429 0.083333
vt 0.142857 0.083333
vt 0.214286 0.083333
vt 0.285714 0.083333
vt 0.357143 0.083333
vt 0.428571 0.083333
vt 0.500000 0.083333
vt 0.571429 0.083333
vt 0.642857 0.083333
vt 0.714286 0.083333
vt 0.785714 0.083333
vt 0.857143 0.083333
vt 0.928572 0.083333
vt 1.000000 0.083333
vt 0.000000 0.166667
vt 0.071429 0.166667
vt 0.142857 0.166667
vt 0.214286 0.166667
vt 0.285714 0.166667
vt 0.357143 0.166667
vt 0.428571 0.166667
vt 0.500000 0.166667
vt 0.571429 0.166667
vt 0.642857 0.166667
vt 0.714286 0.166667
vt 0.785714 0.166667
vt 0.857143 0.166667
vt 0.928572 0.166667
vt 1.000000 0.166667
vt 0.000000 0.250000
vt 0.071429 0.250000
vt 0.142857 0.250000
vt 0.214286 0.250000
vt 0.285714 0.250000
vt 0.357143 0.250000
vt 0.428571 0.250000
vt 0.500000 0.250000
vt 0.571429 0.250000
vt 0.642857 0.250000
vt 0.714286 0.250000
vt 0.785714 0.250000
vt 0.857143 0.250000
vt 0.928572 0.250000
vt 1.000000 0.250000
vt 0.000000 0.333333
vt 0.071429 0.333333
vt 0.142857 0.333333
vt 0.214286 0.333333
vt 0.285714 0.333333
vt 0.357143 0.333333
vt 0.428571 0.333333
vt 0.500000 0.333333
vt 0.571429 0.333333
vt 0.642857 0.333333
vt 0.714286 0.333333
vt 0.785714 0.333333
vt 0.857143 0.333333
vt 0.928572 0.333333
vt 1.000000 0.333333
vt 0.000000 0.416667
vt 0.071429 0.416667
vt 0.142857 0.416667
vt 0.214286 0.416667
vt 0.285714 0.416667
vt 0.357143 0.416667
vt 0.428571 0.416667
vt 0.500000 0.416667
vt 0.571429 0.416667
vt 0.642857 0.416667
vt 0.714286 0.416667
vt 0.785714 0.416667
vt 0.857143 0.416667
vt 0.928572 0.416667
vt 1.000000 0.416667
vt 0.000000 0.500000
vt 0.071429 0.500000
vt 0.142857 0.500000
vt 0.214286 0.500000
vt 0.285714 0.500000
vt 0.357143 0.500000
vt 0.428571 0.500000
vt 0.500000 0.500000
vt 0.571429 0.500000
vt 0.642857 0.500000
vt 0.714286 0.500000
vt 0.785714 0.500000
vt 0.857143 0.500000
vt 0.928572 0.500000
vt 1.000000 0.500000
vt 0.000000 0.583333
vt 0.071429 0.583333
vt 0.142857 0.583333
vt 0.214286 0.583333
vt 0.285714 0.583333
vt 0.357143 0.583333
vt 0.428571 0.583333
vt 0.500000 0.583333
vt 0.571429 0.583333
vt 0.642857 0.583333
vt 0.714286 0.583333
vt 0.785714 0.583333
vt 0.857143 0.583333
vt 0.928572 0.583333
vt 1.000000 0.583333
vt 0.000000 0.666667
vt 0.071429 0.666667
vt 0.142857 0.666667
vt 0.214286 0.666667
vt 0.285714 0.666667
vt 0.357143 0.666667
vt 0.428571 0.666667
vt 0.500000 0.666667
vt 0.571429 0.666667
vt 0.642857 0.666667
vt 0.714286 0.666667
vt 0.785714 0.666667
vt 0.857143 0.666667
vt 0.928572 0.666667
vt 1.000000 0.666667
vt 0.000000 0.750000
vt 0.071429 0.750000
vt 0.142857 0.750000
vt 0.214286 0.750000
vt 0.285714 0.750000
vt 0.357143 0.750000
vt 0.428571 0.750000
vt 0.500000 0.750000
vt 0.571429 0.750000
vt 0.642857 0.750000
vt 0.714286 0.750000
vt 0.785714 0.750000
vt 0.857143 0.750000
vt 0.928572 0.750000
vt 1.000000 0.750000
vt 0.000000 0.833333
vt 0.071429 0.833333
vt 0.142857 0.833333
vt 0.214286 0.833333
vt 0.285714 0.833333
vt 0.357143 0.833333
vt 0.428571 0.833333
vt 0.500000 0.833333
vt 0.571429 0.833333
vt 0.642857 0.833333
vt 0.714286 0.833333
vt 0.785714 0.833333
vt 0.857143 0.833333
vt 0.928572 0.833333
vt 1.000000 0.833333
vt 0.000000 0.916667
vt 0.071429 0.916667
vt 0.142857 0.916667
vt 0.214286 0.916667
vt 0.285714 0.916667
vt 0.357143 0.916667
vt 0.428571 0.916667
vt 0.500000 0.916667
vt 0.571429 0.916667
vt 0.642857 0.916667
vt 0.714286 0.916667
vt 0.785714 0.916667
vt 0.857143 0.916667
vt 0.928572 0.916667
vt 1.000000 0.916667
vt 0.035714 0.000000
vt 0.107143 0.000000
vt 0.178571 0.000000
vt 0.250000 0.000000
vt 0.321429 0.000000
vt 0.392857 0.000000
vt 0.464286 0.000000
vt 0.535714 0.000000
vt 0.607143 0.000000
vt 0.678571 0.000000
vt 0.750000 0.000000
vt 0.821429 0.000000
vt 0.892857 0.000000
vt 0.964286 0.000000
vt 0.035714 1.000000
vt 0.107143 1.000000
vt 0.178571 1.000000
vt 0.250000 1.000000
vt 0.321429 1.000000
vt 0.392857 1.000000
vt 0.464286 1.000000
vt 0.535714 1.000000
vt 0.607143 1.000000
vt 0.678571 1.000000
vt 0.750000 1.000000
vt 0.821429 1.000000
vt 0.892857 1.000000
vt 0.964286 1.000000
vn 0.232996 -0.965983 -0.112205
vn 0.161238 -0.965983 -0.202186
vn 0.311540 -0.866215 -0.390659
vn 0.450188 -0.866215 -0.216799
vn 0.057545 -0.965983 -0.252122
vn 0.111187 -0.866215 -0.487144
vn -0.057545 -0.965983 -0.252122
vn -0.111187 -0.866215 -0.487144
vn -0.161238 -0.965983 -0.202186
vn -0.311540 -0.866215 -0.390659
vn -0.232996 -0.965983 -0.112205
vn -0.450188 -0.866215 -0.216799
vn -0.258606 -0.965983 0.000000
vn -0.499672 -0.866215 0.000000
vn -0.232996 -0.965983 0.112205
vn -0.450189 -0.866215 0.216799
vn -0.161238 -0.965983 0.202186
vn -0.311540 -0.866215 0.390659
vn -0.057545 -0.965983 0.252122
vn -0.111187 -0.866215 0.487144
vn 0.057545 -0.965983 0.252122
vn 0.111187 -0.866215 0.487144
vn 0.161238 -0.965983 0.202186
vn 0.311540 -0.866215 0.390659
vn 0.232996 -0.965983 0.112205
vn 0.450188 -0.866215 0.216799
vn 0.258606 -0.965983 0.000000
vn 0.499672 -0.866215 0.000000
vn 0.440683 -0.707413 -0.552599
vn 0.636806 -0.707413 -0.306669
vn 0.157278 -0.707413 -0.689080
vn -0.157278 -0.707413 -0.689080
vn -0.440683 -0.707413 -0.552599
vn -0.636806 -0.707413 -0.306669
vn -0.706801 -0.707413 -0.000000
vn -0.636806 -0.707413 0.306669
vn -0.440683 -0.707413 0.552599
vn -0.157278 -0.707413 0.689080
vn 0.157278 -0.707413 0.689080
vn 0.440683 -0.707413 0.552599
vn 0.636806 -0.707413 0.306669
vn 0.706801 -0.707413 -0.000000
vn 0.539843 -0.500320 -0.676941
vn 0.780095 -0.500320 -0.375674
vn 0.192668 -0.500320 -0.844132
vn -0.192668 -0.500320 -0.844132
vn -0.539843 -0.500320 -0.676941
vn -0.780095 -0.500320 -0.375674
vn -0.865840 -0.500320 -0.000000
vn -0.780095 -0.500320 0.375674
vn -0.539843 -0.500320 0.676941
vn -0.192668 -0.500320 0.844132
vn 0.192667 -0.500320 0.844132
vn 0.539843 -0.500320 0.676941
vn 0.780095 -0.500320 0.375674
vn 0.865840 -0.500320 0.000000
vn 0.602211 -0.259023 -0.755148
vn 0.870220 -0.259023 -0.419076
vn 0.214927 -0.259023 -0.941655
vn -0.214926 -0.259024 -0.941655
vn -0.602211 -0.259024 -0.755148
vn -0.870220 -0.259024 -0.419076
vn -0.965871 -0.259023 -0.000000
vn -0.870220 -0.259023 0.419075
vn -0.602211 -0.259024 0.755148
vn -0.214927 -0.259024 0.941655
vn 0.214926 -0.259024 0.941655
vn 0.602211 -0.259024 0.755149
vn 0.870220 -0.259024 0.419076
vn 0.965871 -0.259024 0.000000
vn 0.623490 0.000000 -0.781832
vn 0.900969 0.000000 -0.433884
vn 0.222521 0.000000 -0.974928
vn -0.222521 0.000000 -0.974928
vn -0.623490 0.000000 -0.781832
vn -0.900969 0.000000 -0.433884
vn -1.000000 -0.000000 -0.000000
vn -0.900969 0.000000 0.433884
vn -0.623490 0.000000 0.781832
vn -0.222521 -0.000000 0.974928
vn 0.222521 -0.000000 0.974928
vn 0.623490 -0.000000 0.781832
vn 0.900969 0.000000 0.433884
vn 1.000000 0.000000 0.000000
vn 0.602211 0.259023 -0.755148
vn 0.870220 0.259024 -0.419076
vn 0.214927 0.259023 -0.941655
vn -0.214926 0.259024 -0.941655
vn -0.602211 0.259024 -0.755148
vn -0.870220 0.259024 -0.419076
vn -0.965871 0.259023 -0.000000
vn -0.870220 0.259023 0.419076
vn -0.602211 0.259024 0.755148
vn -0.214927 0.259024 0.941655
vn 0.214926 0.259024 0.941655
vn 0.602211 0.259024 0.755148
vn 0.870220 0.259024 0.419076
vn 0.965871 0.259024 0.000000
vn 0.539843 0.500320 -0.676941
vn 0.780095 0.500320 -0.375674
vn 0.192668 0.500320 -0.844132
vn -0.192667 0.500320 -0.844132
vn -0.539843 0.500320 -0.676941
vn -0.780095 0.500320 -0.375674
vn -0.865840 0.500320 -0.000000
vn -0.780095 0.500320 0.375674
vn -0.539843 0.500320 0.676941
vn -0.192668 0.500320 0.844132
vn 0.192667 0.500320 0.844132
vn 0.539843 0.500320 0.676941
vn 0.780095 0.500320 0.375674
vn 0.865840 0.500320 0.000000
vn 0.440683 0.707413 -0.552599
vn 0.636806 0.707413 -0.306669
vn 0.157278 0.707413 -0.689080
vn -0.157278 0.707413 -0.689080
vn -0.440683 0.707413 -0.552599
vn -0.636806 0.707412 -0.306670
vn -0.706801 0.707413 -0.000000
vn -0.636806 0.707413 0.306669
vn -0.440683 0.707413 0.552599
vn -0.157278 0.707413 0.689080
vn 0.157278 0.707413 0.689080
vn 0.440683 0.707413 0.552599
vn 0.636806 0.707413 0.306669
vn 0.706801 0.707413 0.000000
vn 0.311540 0.866215 -0.390659
vn 0.450188 0.866215 -0.216799
vn 0.111187 0.866215 -0.487144
vn -0.111187 0.866215 -0.487144
vn -0.311540 0.866215 -0.390659
vn -0.450189 0.866215 -0.216799
vn -0.499672 0.866215 -0.000000
vn -0.450189 0.866215 0.216799
vn -0.311540 0.866215 0.390659
vn -0.111187 0.866215 0.487144
vn 0.111187 0.866215 0.487144
vn 0.311540 0.866215 0.390659
vn 0.450188 0.866215 0.216799
vn 0.499672 0.866215 0.000000
vn 0.161238 0.965983 -0.202186
vn 0.232996 0.965983 -0.112205
vn 0.057545 0.965983 -0.252122
vn -0.057545 0.965983 -0.252122
vn -0.161238 0.965983 -0.202186
vn -0.232996 0.965983 -0.112205
vn -0.258606 0.965983 -0.000000
vn -0.232996 0.965983 0.112205
vn -0.161238 0.965983 0.202186
vn -0.057545 0.965983 0.252122
vn 0.057545 0.965983 0.252122
vn 0.161238 0.965983 0.202186
vn 0.232996 0.965983 0.112205
vn 0.258606 0.965983 0.000000
vn -0.000000 -1.000000 0.000000
vn -0.000000 1.000000 -0.000000
s 1
g pasted__pSphere1 group
usemtl initialShadingGroup
f 1/1/1 2/2/2 16/17/3 15/16/4
f 2/2/2 3/3/5 17/18/6 16/17/3
f 3/3/5 4/4/7 18/19/8 17/18/6
f 4/4/7 5/5/9 19/20/10 18/19/8
f 5/5/9 6/6/11 20/21/12 19/20/10
f 6/6/11 7/7/13 21/22/14 20/21/12
f 7/7/13 8/8/15 22/23/16 21/22/14
f 8/8/15 9/9/17 23/24/18 22/23/16
f 9/9/17 10/10/19 24/25/20 23/24/18
f 10/10/19 11/11/21 25/26/22 24/25/20
f 11/11/21 12/12/23 26/27/24 25/26/22
f 12/12/23 13/13/25 27/28/26 26/27/24
f 13/13/25 14/14/27 28/29/28 27/28/26
f 14/14/27 1/15/1 15/30/4 28/29/28
f 15/16/4 16/17/3 30/32/29 29/31/30
f 16/17/3 17/18/6 31/33/31 30/32/29
f 17/18/6 18/19/8 32/34/32 31/33/31
f 18/19/8 19/20/10 33/35/33 32/34/32
f 19/20/10 20/21/12 34/36/34 33/35/33
f 20/21/12 21/22/14 35/37/35 34/36/34
f 21/22/14 22/23/16 36/38/36 35/37/35
f 22/23/16 23/24/18 37/39/37 36/38/36
f 23/24/18 24/25/20 38/40/38 37/39/37
f 24/25/20 25/26/22 39/41/39 38/40/38
f 25/26/22 26/27/24 40/42/40 39/41/39
f 26/27/24 27/28/26 41/43/41 40/42/40
f 27/28/26 28/29/28 42/44/42 41/43/41
f 28/29/28 15/30/4 29/45/30 42/44/42
f 29/31/30 30/32/29 44/47/43 43/46/44
f 30/32/29 31/33/31 45/48/45 44/47/43
f 31/33/31 32/34/32 46/49/46 45/48/45
f 32/34/32 33/35/33 47/50/47 46/49/46
f 33/35/33 34/36/34 48/51/48 47/50/47
f 34/36/34 35/37/35 49/52/49 48/51/48
f 35/37/35 36/38/36 50/53/50 49/52/49
f 36/38/36 37/39/37 51/54/51 50/53/50
f 37/39/37 38/40/38 52/55/52 51/54/51
f 38/40/38 39/41/39 53/56/53 52/55/52
f 39/41/39 40/42/40 54/57/54 53/56/53
f 40/42/40 41/43/41 55/58/55 54/57/54
f 41/43/41 42/44/42 56/59/56 55/58/55
f 42/44/42 29/45/30 43/60/44 56/59/56
f 43/46/44 44/47/43 58/62/57 57/61/58
f 44/47/43 45/48/45 59/63/59 58/62/57
f 45/48/45 46/49/46 60/64/60 59/63/59
f 46/49/46 47/50/47 61/65/61 60/64/60
f 47/50/47 48/51/48 62/66/62 61/65/61
f 48/51/48 49/52/49 63/67/63 62/66/62
f 49/52/49 50/53/50 64/68/64 63/67/63
f 50/53/50 51/54/51 65/69/65 64/68/64
f 51/54/51 52/55/52 66/70/66 65/69/65
f 52/55/52 53/56/53 67/71/67 66/70/66
f 53/56/53 54/57/54 68/72/68 67/71/67
f 54/57/54 55/58/55 69/73/69 68/72/68
f 55/58/55 56/59/56 70/74/70 69/73/69
f 56/59/56 43/60/44 57/75/58 70/74/70
f 57/61/58 58/62/57 72/77/71 71/76/72
f 58/62/57 59/63/59 73/78/73 72/77/71
f 59/63/59 60/64/60 74/79/74 73/78/73
f 60/64/60 61/65/61 75/80/75 74/79/74
f 61/65/61 62/66/62 76/81/76 75/80/75
f 62/66/62 63/67/63 77/82/77 76/81/76
f 63/67/63 64/68/64 78/83/78 77/82/77
f 64/68/64 65/69/65 79/84/79 78/83/78
f 65/69/65 66/70/66 80/85/80 79/84/79
f 66/70/66 67/71/67 81/86/81 80/85/80
f 67/71/67 68/72/68 82/87/82 81/86/81
f 68/72/68 69/73/69 83/88/83 82/87/82
f 69/73/69 70/74/70 84/89/84 83/88/83
f 70/74/70 57/75/58 71/90/72 84/89/84
f 71/76/72 72/77/71 86/92/85 85/91/86
f 72/77/71 73/78/73 87/93/87 86/92/85
f 73/78/73 74/79/74 88/94/88 87/93/87
f 74/79/74 75/80/75 89/95/89 88/94/88
f 75/80/75 76/81/76 90/96/90 89/95/89
f 76/81/76 77/82/77 91/97/91 90/96/90
f 77/82/77 78/83/78 92/98/92 91/97/91
f 78/83/78 79/84/79 93/99/93 92/98/92
f 79/84/79 80/85/80 94/100/94 93/99/93
f 80/85/80 81/86/81 95/101/95 94/100/94
f 81/86/81 82/87/82 96/102/96 95/101/95
f 82/87/82 83/88/83 97/103/97 96/102/96
f 83/88/83 84/89/84 98/104/98 97/103/97
f 84/89/84 71/90/72 85/105/86 98/104/98
f 85/91/86 86/92/85 100/107/99 99/106/100
f 86/92/85 87/93/87 101/108/101 100/107/99
f 87/93/87 88/94/88 102/109/102 101/108/101
f 88/94/88 89/95/89 103/110/103 102/109/102
f 89/95/89 90/96/90 104/111/104 103/110/103
f 90/96/90 91/97/91 105/112/105 104/111/104
f 91/97/91 92/98/92 106/113/106 105/112/105
f 92/98/92 93/99/93 107/114/107 106/113/106
f 93/99/93 94/100/94 108/115/108 107/114/107
f 94/100/94 95/101/95 109/116/109 108/115/108
f 95/101/95 96/102/96 110/117/110 109/116/109
f 96/102/96 97/103/97 111/118/111 110/117/110
f 97/103/97 98/104/98 112/119/112 111/118/111
f 98/104/98 85/105/86 99/120/100 112/119/112
f 99/106/100 100/107/99 114/122/113 113/121/114
f 100/107/99 101/108/101 115/123/115 114/122/113
f 101/108/101 102/109/102 116/124/116 115/123/115
f 102/109/102 103/110/103 117/125/117 116/124/116
f 103/110/103 104/111/104 118/126/118 117/125/117
f 104/111/104 105/112/105 119/127/119 118/126/118
f 105/112/105 106/113/106 120/128/120 119/127/119
f 106/113/106 107/114/107 121/129/121 120/128/120
f 107/114/107 108/115/108 122/130/122 121/129/121
f 108/115/108 109/116/109 123/131/123 122/130/122
f 109/116/109 110/117/110 124/132/124 123/131/123
f 110/117/110 111/118/111 125/133/125 124/132/124
f 111/118/111 112/119/112 126/134/126 125/133/125
f 112/119/112 99/120/100 113/135/114 126/134/126
f 113/121/114 114/122/113 128/137/127 127/136/128
f 114/122/113 115/123/115 129/138/129 128/137/127
f 115/123/115 116/124/116 130/139/130 129/138/129
f 116/124/116 117/125/117 131/140/131 130/139/130
f 117/125/117 118/126/118 132/141/132 131/140/131
f 118/126/118 119/127/119 133/142/133 132/141/132
f 119/127/119 120/128/120 134/143/134 133/142/133
f 120/128/120 121/129/121 135/144/135 134/143/134
f 121/129/121 122/130/122 136/145/136 135/144/135
f 122/130/122 123/131/123 137/146/137 136/145/136
f 123/131/123 124/132/124 138/147/138 137/146/137
f 124/132/124 125/133/125 139/148/139 138/147/138
f 125/133/125 126/134/126 140/149/140 139/148/139
f 126/134/126 113/135/114 127/150/128 140/149/140
f 127/136/128 128/137/127 142/152/141 141/151/142
f 128/137/127 129/138/129 143/153/143 142/152/141
f 129/138/129 130/139/130 144/154/144 143/153/143
f 130/139/130 131/140/131 145/155/145 144/154/144
f 131/140/131 132/141/132 146/156/146 145/155/145
f 132/141/132 133/142/133 147/157/147 146/156/146
f 133/142/133 134/143/134 148/158/148 147/157/147
f 134/143/134 135/144/135 149/159/149 148/158/148
f 135/144/135 136/145/136 150/160/150 149/159/149
f 136/145/136 137/146/137 151/161/151 150/160/150
f 137/146/137 138/147/138 152/162/152 151/161/151
f 138/147/138 139/148/139 153/163/153 152/162/152
f 139/148/139 140/149/140 154/164/154 153/163/153
f 140/149/140 127/150/128 141/165/142 154/164/154
f 2/2/2 1/1/1 155/166/155
f 3/3/5 2/2/2 155/167/155
f 4/4/7 3/3/5 155/168/155
f 5/5/9 4/4/7 155/169/155
f 6/6/11 5/5/9 155/170/155
f 7/7/13 6/6/11 155/171/155
f 8/8/15 7/7/13 155/172/155
f 9/9/17 8/8/15 155/173/155
f 10/10/19 9/9/17 155/174/155
f 11/11/21 10/10/19 155/175/155
f 12/12/23 11/11/21 155/176/155
f 13/13/25 12/12/23 155/177/155
f 14/14/27 13/13/25 155/178/155
f 1/15/1 14/14/27 155/179/155
f 141/151/142 142/152/141 156/180/156
f 142/152/141 143/153/143 156/181/156
f 143/153/143 144/154/144 156/182/156
f 144/154/144 145/155/145 156/183/156
f 145/155/145 146/156/146 156/184/156
f 146/156/146 147/157/147 156/185/156
f 147/157/147 148/158/148 156/186/156
f 148/158/148 149/159/149 156/187/156
f 149/159/149 150/160/150 156/188/156
f 150/160/150 151/161/151 156/189/156
f 151/161/151 152/162/152 156/190/156
f 152/162/152 153/163/153 156/191/156
f 153/163/153 154/164/154 156/192/156
f 154/164/154 141/165/142 156/193/156
